<?xml version="1.0" encoding="iso-8859-1"?>
<!-- Generator: Adobe Illustrator 19.0.0, SVG Export Plug-In . SVG Version: 6.00 Build 0)  -->
<svg xmlns="http://www.w3.org/2000/svg" xmlns:xlink="http://www.w3.org/1999/xlink" version="1.1" id="Layer_1" x="0px" y="0px" viewBox="0 0 512 512" style="enable-background:new 0 0 512 512;" xml:space="preserve" width="512px" height="512px">
<g>
	<g>
		<path d="M508.305,245.892l-32.425-38.425c-2.979-3.529-7.361-5.565-11.979-5.565H219.74c-19.927-38.63-59.4-63.049-103.304-63.049    C52.232,138.852,0,191.404,0,256s52.232,117.148,116.436,117.148c43.904,0,83.377-24.419,103.304-63.049h29.307l17.245,30.079    c6.006,10.478,21.176,10.498,27.195-0.001l15.47-26.984l15.472,26.985c6.006,10.478,21.176,10.498,27.195-0.001l15.47-26.984    l15.472,26.986c6.006,10.478,21.176,10.498,27.195-0.001l17.243-30.078H463.9c4.617,0,9-2.036,11.979-5.565l32.425-38.425    C513.232,260.27,513.232,251.731,508.305,245.892z M116.436,296.961c-22.488,0-40.784-18.376-40.784-40.961    c0-22.585,18.296-40.961,40.784-40.961S157.22,233.415,157.22,256C157.22,278.585,138.924,296.961,116.436,296.961z" fill="#95989a"/>
	</g>
</g>
</svg>
